<mxfile host="app.diagrams.net" agent="Mozilla/5.0 (Windows NT 10.0; Win64; x64; rv:131.0) Gecko/20100101 Firefox/131.0" version="24.7.17">
  <diagram name="Сторінка-1" id="QFUbXRwjxA7F3QS9imNm">
    <mxGraphModel dx="1477" dy="779" grid="0" gridSize="10" guides="1" tooltips="1" connect="1" arrows="1" fold="1" page="1" pageScale="1" pageWidth="827" pageHeight="1169" math="0" shadow="0">
      <root>
        <mxCell id="0" />
        <mxCell id="1" parent="0" />
        <mxCell id="uGY_Ud1xk8yVbTRzpZSZ-7" style="edgeStyle=none;curved=1;rounded=0;orthogonalLoop=1;jettySize=auto;html=1;exitX=0.5;exitY=1;exitDx=0;exitDy=0;entryX=0.5;entryY=0;entryDx=0;entryDy=0;fontSize=12;startSize=8;endSize=8;" edge="1" parent="1" source="uGY_Ud1xk8yVbTRzpZSZ-2" target="uGY_Ud1xk8yVbTRzpZSZ-3">
          <mxGeometry relative="1" as="geometry" />
        </mxCell>
        <mxCell id="uGY_Ud1xk8yVbTRzpZSZ-2" value="Start" style="ellipse;whiteSpace=wrap;html=1;" vertex="1" parent="1">
          <mxGeometry x="369" y="33" width="110" height="50" as="geometry" />
        </mxCell>
        <mxCell id="uGY_Ud1xk8yVbTRzpZSZ-8" style="edgeStyle=none;curved=1;rounded=0;orthogonalLoop=1;jettySize=auto;html=1;exitX=0.5;exitY=1;exitDx=0;exitDy=0;entryX=0.5;entryY=0;entryDx=0;entryDy=0;fontSize=12;startSize=8;endSize=8;" edge="1" parent="1" source="uGY_Ud1xk8yVbTRzpZSZ-3" target="uGY_Ud1xk8yVbTRzpZSZ-4">
          <mxGeometry relative="1" as="geometry" />
        </mxCell>
        <mxCell id="uGY_Ud1xk8yVbTRzpZSZ-3" value="init i=0" style="rounded=0;whiteSpace=wrap;html=1;" vertex="1" parent="1">
          <mxGeometry x="381.5" y="103" width="85" height="40" as="geometry" />
        </mxCell>
        <mxCell id="uGY_Ud1xk8yVbTRzpZSZ-32" style="edgeStyle=none;curved=1;rounded=0;orthogonalLoop=1;jettySize=auto;html=1;exitX=0.5;exitY=1;exitDx=0;exitDy=0;entryX=0.5;entryY=0;entryDx=0;entryDy=0;fontSize=12;startSize=8;endSize=8;" edge="1" parent="1" source="uGY_Ud1xk8yVbTRzpZSZ-4" target="uGY_Ud1xk8yVbTRzpZSZ-43">
          <mxGeometry relative="1" as="geometry">
            <mxPoint x="424" y="243" as="targetPoint" />
          </mxGeometry>
        </mxCell>
        <mxCell id="uGY_Ud1xk8yVbTRzpZSZ-33" style="edgeStyle=none;curved=0;rounded=0;orthogonalLoop=1;jettySize=auto;html=1;fontSize=12;startSize=8;endSize=8;entryX=0;entryY=0.5;entryDx=0;entryDy=0;" edge="1" parent="1" source="uGY_Ud1xk8yVbTRzpZSZ-4" target="uGY_Ud1xk8yVbTRzpZSZ-34">
          <mxGeometry relative="1" as="geometry">
            <mxPoint x="349" y="353" as="targetPoint" />
            <Array as="points">
              <mxPoint x="349" y="193" />
              <mxPoint x="349" y="343" />
            </Array>
          </mxGeometry>
        </mxCell>
        <mxCell id="uGY_Ud1xk8yVbTRzpZSZ-4" value="i&amp;lt;5" style="rhombus;whiteSpace=wrap;html=1;" vertex="1" parent="1">
          <mxGeometry x="387.75" y="163" width="72.5" height="60" as="geometry" />
        </mxCell>
        <mxCell id="uGY_Ud1xk8yVbTRzpZSZ-30" style="edgeStyle=none;curved=0;rounded=0;orthogonalLoop=1;jettySize=auto;html=1;exitX=1;exitY=0.5;exitDx=0;exitDy=0;fontSize=12;startSize=8;endSize=8;entryX=0.5;entryY=1;entryDx=0;entryDy=0;" edge="1" parent="1" source="uGY_Ud1xk8yVbTRzpZSZ-43" target="uGY_Ud1xk8yVbTRzpZSZ-6">
          <mxGeometry relative="1" as="geometry">
            <mxPoint x="549" y="267.68965517241384" as="targetPoint" />
            <mxPoint x="479" y="268" as="sourcePoint" />
            <Array as="points">
              <mxPoint x="544" y="268" />
            </Array>
          </mxGeometry>
        </mxCell>
        <mxCell id="uGY_Ud1xk8yVbTRzpZSZ-31" style="edgeStyle=none;curved=1;rounded=0;orthogonalLoop=1;jettySize=auto;html=1;entryX=1;entryY=0.5;entryDx=0;entryDy=0;fontSize=12;startSize=8;endSize=8;" edge="1" parent="1" source="uGY_Ud1xk8yVbTRzpZSZ-6" target="uGY_Ud1xk8yVbTRzpZSZ-4">
          <mxGeometry relative="1" as="geometry" />
        </mxCell>
        <mxCell id="uGY_Ud1xk8yVbTRzpZSZ-6" value="i++" style="rounded=0;whiteSpace=wrap;html=1;" vertex="1" parent="1">
          <mxGeometry x="499" y="173" width="90" height="40" as="geometry" />
        </mxCell>
        <mxCell id="uGY_Ud1xk8yVbTRzpZSZ-36" style="edgeStyle=none;curved=0;rounded=0;orthogonalLoop=1;jettySize=auto;html=1;exitX=1;exitY=0.5;exitDx=0;exitDy=0;entryX=0.5;entryY=0;entryDx=0;entryDy=0;fontSize=12;startSize=8;endSize=8;" edge="1" parent="1" source="uGY_Ud1xk8yVbTRzpZSZ-34" target="uGY_Ud1xk8yVbTRzpZSZ-35">
          <mxGeometry relative="1" as="geometry">
            <mxPoint x="535.0000000000001" y="333" as="sourcePoint" />
            <Array as="points">
              <mxPoint x="545" y="343" />
            </Array>
          </mxGeometry>
        </mxCell>
        <mxCell id="uGY_Ud1xk8yVbTRzpZSZ-34" value="init i=1" style="rounded=0;whiteSpace=wrap;html=1;" vertex="1" parent="1">
          <mxGeometry x="382.5" y="323" width="85" height="40" as="geometry" />
        </mxCell>
        <mxCell id="uGY_Ud1xk8yVbTRzpZSZ-48" style="edgeStyle=none;curved=1;rounded=0;orthogonalLoop=1;jettySize=auto;html=1;exitX=0.5;exitY=1;exitDx=0;exitDy=0;entryX=0.5;entryY=0;entryDx=0;entryDy=0;fontSize=12;startSize=8;endSize=8;" edge="1" parent="1" source="uGY_Ud1xk8yVbTRzpZSZ-35" target="uGY_Ud1xk8yVbTRzpZSZ-40">
          <mxGeometry relative="1" as="geometry" />
        </mxCell>
        <mxCell id="uGY_Ud1xk8yVbTRzpZSZ-55" style="edgeStyle=none;curved=0;rounded=0;orthogonalLoop=1;jettySize=auto;html=1;fontSize=12;startSize=8;endSize=8;entryX=0.5;entryY=0;entryDx=0;entryDy=0;" edge="1" parent="1" source="uGY_Ud1xk8yVbTRzpZSZ-35" target="uGY_Ud1xk8yVbTRzpZSZ-56">
          <mxGeometry relative="1" as="geometry">
            <mxPoint x="289" y="673" as="targetPoint" />
            <Array as="points">
              <mxPoint x="189" y="403" />
            </Array>
          </mxGeometry>
        </mxCell>
        <mxCell id="uGY_Ud1xk8yVbTRzpZSZ-35" value="i&amp;lt;5" style="rhombus;whiteSpace=wrap;html=1;" vertex="1" parent="1">
          <mxGeometry x="508.75" y="373" width="72.5" height="60" as="geometry" />
        </mxCell>
        <mxCell id="uGY_Ud1xk8yVbTRzpZSZ-38" style="edgeStyle=none;curved=1;rounded=0;orthogonalLoop=1;jettySize=auto;html=1;entryX=1;entryY=0.5;entryDx=0;entryDy=0;fontSize=12;startSize=8;endSize=8;" edge="1" parent="1" source="uGY_Ud1xk8yVbTRzpZSZ-39">
          <mxGeometry relative="1" as="geometry">
            <mxPoint x="580" y="403" as="targetPoint" />
          </mxGeometry>
        </mxCell>
        <mxCell id="uGY_Ud1xk8yVbTRzpZSZ-39" value="i++" style="rounded=0;whiteSpace=wrap;html=1;" vertex="1" parent="1">
          <mxGeometry x="619" y="383" width="90" height="40" as="geometry" />
        </mxCell>
        <mxCell id="uGY_Ud1xk8yVbTRzpZSZ-46" style="edgeStyle=none;curved=1;rounded=0;orthogonalLoop=1;jettySize=auto;html=1;exitX=0;exitY=0.5;exitDx=0;exitDy=0;entryX=1;entryY=0.5;entryDx=0;entryDy=0;fontSize=12;startSize=8;endSize=8;" edge="1" parent="1" source="uGY_Ud1xk8yVbTRzpZSZ-40" target="uGY_Ud1xk8yVbTRzpZSZ-45">
          <mxGeometry relative="1" as="geometry" />
        </mxCell>
        <mxCell id="uGY_Ud1xk8yVbTRzpZSZ-47" style="edgeStyle=none;curved=1;rounded=0;orthogonalLoop=1;jettySize=auto;html=1;exitX=0.5;exitY=1;exitDx=0;exitDy=0;fontSize=12;startSize=8;endSize=8;" edge="1" parent="1" source="uGY_Ud1xk8yVbTRzpZSZ-40">
          <mxGeometry relative="1" as="geometry">
            <mxPoint x="545.7142857142858" y="563" as="targetPoint" />
          </mxGeometry>
        </mxCell>
        <mxCell id="uGY_Ud1xk8yVbTRzpZSZ-40" value="if cubes[0]==0 or cubes[i]&amp;lt;=0" style="rhombus;whiteSpace=wrap;html=1;" vertex="1" parent="1">
          <mxGeometry x="470" y="453" width="150" height="70" as="geometry" />
        </mxCell>
        <mxCell id="uGY_Ud1xk8yVbTRzpZSZ-43" value="input cubes[i]" style="shape=parallelogram;perimeter=parallelogramPerimeter;whiteSpace=wrap;html=1;fixedSize=1;" vertex="1" parent="1">
          <mxGeometry x="364" y="248" width="120" height="40" as="geometry" />
        </mxCell>
        <mxCell id="uGY_Ud1xk8yVbTRzpZSZ-60" style="edgeStyle=none;curved=0;rounded=0;orthogonalLoop=1;jettySize=auto;html=1;exitX=0;exitY=0.5;exitDx=0;exitDy=0;fontSize=12;startSize=8;endSize=8;entryX=0;entryY=0;entryDx=0;entryDy=0;" edge="1" parent="1" source="uGY_Ud1xk8yVbTRzpZSZ-45" target="uGY_Ud1xk8yVbTRzpZSZ-57">
          <mxGeometry relative="1" as="geometry">
            <mxPoint x="309" y="663" as="targetPoint" />
            <Array as="points">
              <mxPoint x="319" y="488" />
              <mxPoint x="319" y="673" />
            </Array>
          </mxGeometry>
        </mxCell>
        <mxCell id="uGY_Ud1xk8yVbTRzpZSZ-45" value="output &quot;ERROR&quot;" style="shape=parallelogram;perimeter=parallelogramPerimeter;whiteSpace=wrap;html=1;fixedSize=1;" vertex="1" parent="1">
          <mxGeometry x="346.5" y="468" width="120" height="40" as="geometry" />
        </mxCell>
        <mxCell id="uGY_Ud1xk8yVbTRzpZSZ-51" style="edgeStyle=none;curved=1;rounded=0;orthogonalLoop=1;jettySize=auto;html=1;entryX=1;entryY=0.5;entryDx=0;entryDy=0;fontSize=12;startSize=8;endSize=8;" edge="1" parent="1" source="uGY_Ud1xk8yVbTRzpZSZ-49" target="uGY_Ud1xk8yVbTRzpZSZ-50">
          <mxGeometry relative="1" as="geometry" />
        </mxCell>
        <mxCell id="uGY_Ud1xk8yVbTRzpZSZ-54" style="edgeStyle=none;curved=0;rounded=0;orthogonalLoop=1;jettySize=auto;html=1;exitX=0.5;exitY=1;exitDx=0;exitDy=0;fontSize=12;startSize=8;endSize=8;entryX=0.5;entryY=1;entryDx=0;entryDy=0;" edge="1" parent="1" source="uGY_Ud1xk8yVbTRzpZSZ-49" target="uGY_Ud1xk8yVbTRzpZSZ-39">
          <mxGeometry relative="1" as="geometry">
            <mxPoint x="689" y="713" as="targetPoint" />
            <Array as="points">
              <mxPoint x="545" y="653" />
              <mxPoint x="664" y="653" />
            </Array>
          </mxGeometry>
        </mxCell>
        <mxCell id="uGY_Ud1xk8yVbTRzpZSZ-49" value="if cubes[i-1] &amp;lt; cubes[i]" style="rhombus;whiteSpace=wrap;html=1;" vertex="1" parent="1">
          <mxGeometry x="470" y="563" width="150" height="70" as="geometry" />
        </mxCell>
        <mxCell id="uGY_Ud1xk8yVbTRzpZSZ-58" style="edgeStyle=none;curved=1;rounded=0;orthogonalLoop=1;jettySize=auto;html=1;exitX=0.5;exitY=1;exitDx=0;exitDy=0;fontSize=12;startSize=8;endSize=8;" edge="1" parent="1">
          <mxGeometry relative="1" as="geometry">
            <mxPoint x="388" y="617" as="sourcePoint" />
            <mxPoint x="389" y="674" as="targetPoint" />
          </mxGeometry>
        </mxCell>
        <mxCell id="uGY_Ud1xk8yVbTRzpZSZ-50" value="output &quot;LOSS&quot;" style="shape=parallelogram;perimeter=parallelogramPerimeter;whiteSpace=wrap;html=1;fixedSize=1;" vertex="1" parent="1">
          <mxGeometry x="329" y="578" width="120" height="40" as="geometry" />
        </mxCell>
        <mxCell id="uGY_Ud1xk8yVbTRzpZSZ-59" style="edgeStyle=none;curved=1;rounded=0;orthogonalLoop=1;jettySize=auto;html=1;exitX=1;exitY=0.5;exitDx=0;exitDy=0;entryX=0;entryY=0.5;entryDx=0;entryDy=0;fontSize=12;startSize=8;endSize=8;" edge="1" parent="1" source="uGY_Ud1xk8yVbTRzpZSZ-56" target="uGY_Ud1xk8yVbTRzpZSZ-57">
          <mxGeometry relative="1" as="geometry" />
        </mxCell>
        <mxCell id="uGY_Ud1xk8yVbTRzpZSZ-56" value="output &quot;WIN&quot;" style="shape=parallelogram;perimeter=parallelogramPerimeter;whiteSpace=wrap;html=1;fixedSize=1;" vertex="1" parent="1">
          <mxGeometry x="129" y="673" width="120" height="40" as="geometry" />
        </mxCell>
        <mxCell id="uGY_Ud1xk8yVbTRzpZSZ-57" value="Finish" style="ellipse;whiteSpace=wrap;html=1;" vertex="1" parent="1">
          <mxGeometry x="299" y="668" width="110" height="50" as="geometry" />
        </mxCell>
        <mxCell id="uGY_Ud1xk8yVbTRzpZSZ-61" value="&lt;font style=&quot;font-size: 10px;&quot;&gt;True&lt;/font&gt;" style="text;html=1;align=center;verticalAlign=middle;whiteSpace=wrap;rounded=0;fontSize=16;" vertex="1" parent="1">
          <mxGeometry x="376.5" y="213" width="60" height="30" as="geometry" />
        </mxCell>
        <mxCell id="uGY_Ud1xk8yVbTRzpZSZ-62" value="&lt;font style=&quot;font-size: 10px;&quot;&gt;False&lt;/font&gt;" style="text;html=1;align=center;verticalAlign=middle;whiteSpace=wrap;rounded=0;fontSize=16;" vertex="1" parent="1">
          <mxGeometry x="346.5" y="163" width="60" height="30" as="geometry" />
        </mxCell>
        <mxCell id="uGY_Ud1xk8yVbTRzpZSZ-63" value="&lt;font style=&quot;font-size: 10px;&quot;&gt;True&lt;/font&gt;" style="text;html=1;align=center;verticalAlign=middle;whiteSpace=wrap;rounded=0;fontSize=16;" vertex="1" parent="1">
          <mxGeometry x="491" y="424" width="60" height="30" as="geometry" />
        </mxCell>
        <mxCell id="uGY_Ud1xk8yVbTRzpZSZ-64" value="&lt;font style=&quot;font-size: 10px;&quot;&gt;False&lt;/font&gt;" style="text;html=1;align=center;verticalAlign=middle;whiteSpace=wrap;rounded=0;fontSize=16;" vertex="1" parent="1">
          <mxGeometry x="461" y="378" width="60" height="30" as="geometry" />
        </mxCell>
        <mxCell id="uGY_Ud1xk8yVbTRzpZSZ-65" value="&lt;font style=&quot;font-size: 10px;&quot;&gt;True&lt;/font&gt;" style="text;html=1;align=center;verticalAlign=middle;whiteSpace=wrap;rounded=0;fontSize=16;" vertex="1" parent="1">
          <mxGeometry x="439" y="483" width="60" height="30" as="geometry" />
        </mxCell>
        <mxCell id="uGY_Ud1xk8yVbTRzpZSZ-67" value="&lt;font style=&quot;font-size: 10px;&quot;&gt;True&lt;/font&gt;" style="text;html=1;align=center;verticalAlign=middle;whiteSpace=wrap;rounded=0;fontSize=16;" vertex="1" parent="1">
          <mxGeometry x="431" y="593" width="60" height="30" as="geometry" />
        </mxCell>
        <mxCell id="uGY_Ud1xk8yVbTRzpZSZ-68" value="&lt;font style=&quot;font-size: 10px;&quot;&gt;False&lt;/font&gt;" style="text;html=1;align=center;verticalAlign=middle;whiteSpace=wrap;rounded=0;fontSize=16;" vertex="1" parent="1">
          <mxGeometry x="540" y="517" width="60" height="30" as="geometry" />
        </mxCell>
        <mxCell id="uGY_Ud1xk8yVbTRzpZSZ-69" value="&lt;font style=&quot;font-size: 10px;&quot;&gt;False&lt;/font&gt;" style="text;html=1;align=center;verticalAlign=middle;whiteSpace=wrap;rounded=0;fontSize=16;" vertex="1" parent="1">
          <mxGeometry x="540" y="623" width="60" height="30" as="geometry" />
        </mxCell>
      </root>
    </mxGraphModel>
  </diagram>
</mxfile>
